<svg aria-hidden="true" style="position: absolute; width: 0; height: 0; overflow: hidden;" version="1.1" xmlns="http://www.w3.org/2000/svg" xmlns:xlink="http://www.w3.org/1999/xlink">
<defs>
<symbol id="icon-bulb" viewBox="0 0 32 32">
<path d="M16 0c-6.076 0-11 4.924-11 11 0 4.031 3.688 8.303 5.031 12.055 2.003 5.595 1.781 8.945 5.969 8.945 4.25 0 3.965-3.334 5.969-8.922 1.347-3.76 5.031-8.078 5.031-12.078 0-6.076-4.926-11-11-11zM18.592 27.176l-4.958 0.619c-0.177-0.512-0.367-1.111-0.598-1.893-0.003-0.010-0.007-0.021-0.009-0.031l6.188-0.773c-0.088 0.295-0.182 0.605-0.264 0.883-0.131 0.449-0.248 0.839-0.359 1.195zM12.736 24.908c-0.182-0.602-0.387-1.236-0.615-1.908h7.766c-0.123 0.359-0.246 0.719-0.352 1.059l-6.799 0.849zM16 30c-1.013 0-1.479-0.117-1.997-1.25l4.238-0.531c-0.614 1.654-1.061 1.781-2.241 1.781zM20.672 21h-9.333c-0.498-1.080-1.096-2.16-1.686-3.217-1.305-2.335-2.653-4.75-2.653-6.783 0-4.963 4.037-9 9-9s9 4.037 9 9c0 2.018-1.35 4.446-2.656 6.795-0.584 1.053-1.178 2.131-1.672 3.205zM16 5c0.275 0 0.5 0.224 0.5 0.5s-0.224 0.5-0.5 0.5c-2.757 0-5 2.243-5 5 0 0.276-0.224 0.5-0.5 0.5s-0.5-0.224-0.5-0.5c0-3.309 2.691-6 6-6z"></path>
</symbol>
<symbol id="icon-basket" viewBox="0 0 32 32">
<path d="M31.739 8.875c-0.186-0.264-0.489-0.422-0.812-0.422h-21.223l-1.607-5.54c-0.63-2.182-2.127-2.417-2.741-2.417h-4.284c-0.549 0-0.993 0.445-0.993 0.993s0.445 0.993 0.993 0.993h4.283c0.136 0 0.549 0 0.831 0.974l5.527 20.311c0.12 0.428 0.511 0.724 0.956 0.724h13.499c0.419 0 0.793-0.262 0.934-0.657l4.758-14.053c0.11-0.304 0.064-0.643-0.122-0.907zM25.47 22.506h-12.046l-3.161-12.066h19.253zM23.5 26.504c-1.381 0-2.5 1.119-2.5 2.5s1.119 2.5 2.5 2.5 2.5-1.119 2.5-2.5c0-1.381-1.119-2.5-2.5-2.5zM14.5 26.504c-1.381 0-2.5 1.119-2.5 2.5s1.119 2.5 2.5 2.5 2.5-1.119 2.5-2.5c0-1.381-1.119-2.5-2.5-2.5z"></path>
</symbol>
<symbol id="icon-call" viewBox="0 0 32 32">
<path d="M23.139 29.643c-2.693-0.675-8.207-2.577-13.206-7.576s-6.901-10.513-7.576-13.206c-0.388-1.548 0.311-3.042 1.495-3.887l3.104-2.217c1.816-1.297 4.343-0.857 5.614 0.978l1.954 2.823c0.83 1.198 0.543 2.841-0.643 3.688l-1.558 1.113c0.236 0.902 0.969 2.755 3.267 5.052s4.15 3.031 5.052 3.267l1.113-1.558c0.847-1.186 2.489-1.472 3.688-0.643l2.823 1.954c1.835 1.271 2.275 3.797 0.978 5.614l-2.217 3.104c-0.846 1.184-2.339 1.883-3.887 1.495zM11.819 20.181c4.546 4.546 9.562 6.272 11.969 6.875 0.352 0.088 0.777-0.049 1.069-0.458l2.217-3.104c0.433-0.605 0.286-1.448-0.326-1.871l-2.823-1.954-1.195 1.672c-0.488 0.683-1.391 1.219-2.442 0.993-1.312-0.283-3.737-1.191-6.584-4.038s-3.755-5.272-4.038-6.584c-0.227-1.051 0.309-1.954 0.993-2.442l1.672-1.195-1.954-2.823c-0.424-0.612-1.266-0.758-1.871-0.326l-3.104 2.217c-0.409 0.292-0.546 0.718-0.458 1.069 0.603 2.406 2.329 7.423 6.875 11.969z"></path>
<path d="M24.552 9.333h3.448c0.736 0 1.333 0.597 1.333 1.333s-0.597 1.333-1.333 1.333h-5.333c-1.473 0-2.667-1.194-2.667-2.667v-5.333c0-0.736 0.597-1.333 1.333-1.333s1.333 0.597 1.333 1.333v3.448l5.674-5.674c0.521-0.521 1.365-0.521 1.886 0s0.521 1.365 0 1.886l-5.674 5.674z"></path>
</symbol>
<symbol id="icon-volume-high" viewBox="0 0 34 32">
<path d="M27.814 28.814c-0.384 0-0.768-0.146-1.061-0.439-0.586-0.586-0.586-1.535 0-2.121 2.739-2.739 4.247-6.38 4.247-10.253s-1.508-7.514-4.247-10.253c-0.586-0.586-0.586-1.536 0-2.121s1.536-0.586 2.121 0c3.305 3.305 5.126 7.7 5.126 12.374s-1.82 9.069-5.126 12.374c-0.293 0.293-0.677 0.439-1.061 0.439zM22.485 25.985c-0.384 0-0.768-0.146-1.061-0.439-0.586-0.586-0.586-1.535 0-2.121 4.094-4.094 4.094-10.755 0-14.849-0.586-0.586-0.586-1.536 0-2.121s1.536-0.586 2.121 0c2.55 2.55 3.954 5.94 3.954 9.546s-1.404 6.996-3.954 9.546c-0.293 0.293-0.677 0.439-1.061 0.439v0zM17.157 23.157c-0.384 0-0.768-0.146-1.061-0.439-0.586-0.586-0.586-1.535 0-2.121 2.534-2.534 2.534-6.658 0-9.192-0.586-0.586-0.586-1.536 0-2.121s1.535-0.586 2.121 0c3.704 3.704 3.704 9.731 0 13.435-0.293 0.293-0.677 0.439-1.061 0.439z"></path>
<path d="M13 30c-0.26 0-0.516-0.102-0.707-0.293l-7.707-7.707h-3.586c-0.552 0-1-0.448-1-1v-10c0-0.552 0.448-1 1-1h3.586l7.707-7.707c0.286-0.286 0.716-0.372 1.090-0.217s0.617 0.519 0.617 0.924v26c0 0.404-0.244 0.769-0.617 0.924-0.124 0.051-0.254 0.076-0.383 0.076z"></path>
</symbol>
<symbol id="icon-volume-mute" viewBox="0 0 32 32">
<path d="M30 19.348v2.652h-2.652l-3.348-3.348-3.348 3.348h-2.652v-2.652l3.348-3.348-3.348-3.348v-2.652h2.652l3.348 3.348 3.348-3.348h2.652v2.652l-3.348 3.348 3.348 3.348z"></path>
<path d="M13 30c-0.26 0-0.516-0.102-0.707-0.293l-7.707-7.707h-3.586c-0.552 0-1-0.448-1-1v-10c0-0.552 0.448-1 1-1h3.586l7.707-7.707c0.286-0.286 0.716-0.372 1.090-0.217s0.617 0.519 0.617 0.924v26c0 0.404-0.244 0.769-0.617 0.924-0.124 0.051-0.254 0.076-0.383 0.076z"></path>
</symbol>
    <symbol id="icon-arrow" viewBox="0 0 32 32">
        <path d="M19.414 27.414l10-10c0.781-0.781 0.781-2.047 0-2.828l-10-10c-0.781-0.781-2.047-0.781-2.828 0s-0.781 2.047 0 2.828l6.586 6.586h-19.172c-1.105 0-2 0.895-2 2s0.895 2 2 2h19.172l-6.586 6.586c-0.39 0.39-0.586 0.902-0.586 1.414s0.195 1.024 0.586 1.414c0.781 0.781 2.047 0.781 2.828 0z"></path>
    </symbol>
    <symbol id="icon-spinner" viewBox="0 0 32 32">
        <path d="M32 12h-12l4.485-4.485c-2.267-2.266-5.28-3.515-8.485-3.515s-6.219 1.248-8.485 3.515c-2.266 2.267-3.515 5.28-3.515 8.485s1.248 6.219 3.515 8.485c2.267 2.266 5.28 3.515 8.485 3.515s6.219-1.248 8.485-3.515c0.189-0.189 0.371-0.384 0.546-0.583l3.010 2.634c-2.933 3.349-7.239 5.464-12.041 5.464-8.837 0-16-7.163-16-16s7.163-16 16-16c4.418 0 8.418 1.791 11.313 4.687l4.687-4.687v12z"></path>
    </symbol>
</defs>
</svg>
